<?xml version="1.0" encoding="UTF-8"?>
<!DOCTYPE svg PUBLIC "-//W3C//DTD SVG 1.1//EN" "http://www.w3.org/Graphics/SVG/1.1/DTD/svg11.dtd">
<svg xmlns="http://www.w3.org/2000/svg" version="1.1" width="100px" height="100px" style="shape-rendering:geometricPrecision; text-rendering:geometricPrecision; image-rendering:optimizeQuality; fill-rule:evenodd; clip-rule:evenodd" xmlns:xlink="http://www.w3.org/1999/xlink">
<g><path style="opacity:0.803" fill="#000000" d="M 23.5,20.5 C 24.9217,20.7086 26.255,21.2086 27.5,22C 34.681,29.348 42.0143,36.5146 49.5,43.5C 56.9857,36.5146 64.319,29.348 71.5,22C 74.7403,19.9438 77.0736,20.7771 78.5,24.5C 78,25.5 77.5,26.5 77,27.5C 69.652,34.681 62.4854,42.0143 55.5,49.5C 62.4854,56.9857 69.652,64.319 77,71.5C 79.0562,74.7403 78.2229,77.0736 74.5,78.5C 73.5,78 72.5,77.5 71.5,77C 64.319,69.652 56.9857,62.4854 49.5,55.5C 42.0143,62.4854 34.681,69.652 27.5,77C 24.2597,79.0562 21.9264,78.2229 20.5,74.5C 21,73.5 21.5,72.5 22,71.5C 29.348,64.319 36.5146,56.9857 43.5,49.5C 36.5146,42.0143 29.348,34.681 22,27.5C 20.0744,24.6747 20.5744,22.3413 23.5,20.5 Z"/></g>
</svg>
